<?xml version="1.0" encoding="utf-8"?>
<!-- Generator: Adobe Illustrator 27.9.0, SVG Export Plug-In . SVG Version: 6.00 Build 0)  -->
<svg version="1.1" id="Ebene_1" xmlns="http://www.w3.org/2000/svg" xmlns:xlink="http://www.w3.org/1999/xlink" x="0px" y="0px"
	 viewBox="0 0 40 40" style="enable-background:new 0 0 40 40;" xml:space="preserve">
<style type="text/css">
	.st0{fill:#FFFFFF;}
</style>
<g>
	<path d="M21.5,16.8c2.8,0,5.5,0,8.3,0c0.4,0,0.8,0,1,0.4c0.2,0.4-0.1,0.7-0.3,1.1c-4.7,6.3-9.4,12.7-14.1,19
		c-0.4,0.6-0.8,0.7-1.3,0.5c-0.5-0.3-0.7-0.7-0.4-1.4c1.2-4.1,2.4-8.2,3.7-12.3c0-0.1,0.1-0.2,0.1-0.4c-0.2,0-0.3,0-0.5,0
		c-2.5,0-5.1,0-7.6,0c-0.4,0-0.8,0-1.1-0.5c-0.2-0.5,0-0.8,0.3-1.1C14.2,15.6,19,9.2,23.7,2.8C24.1,2.3,24.4,2,25,2.3
		c0.5,0.3,0.7,0.7,0.4,1.4c-0.9,3.1-1.9,6.1-2.8,9.2C22.3,14.2,21.9,15.5,21.5,16.8z M16.7,34.3C16.8,34.3,16.8,34.3,16.7,34.3
		c4-5.3,8-10.6,12-16.1c-0.3,0-0.5,0-0.7,0c-2.4,0-4.7,0-7.1,0c-1.1,0-1.3-0.3-1-1.3c0.3-1.1,0.6-2.1,1-3.2c0.8-2.6,1.6-5.3,2.4-7.9
		c0,0,0,0-0.1,0c-4,5.4-8,10.8-12.1,16.3c2.7,0,5.3,0,7.9,0c1,0,1.2,0.3,0.9,1.2C18.9,27,17.8,30.6,16.7,34.3z"/>
	<path class="st0" d="M16.7,34.3c1.1-3.6,2.2-7.3,3.3-10.9c0.3-0.9,0-1.2-0.9-1.2c-2.6,0-5.2,0-7.9,0c4.1-5.5,8.1-10.9,12.1-16.3
		c0,0,0,0,0.1,0c-0.8,2.6-1.6,5.3-2.4,7.9c-0.3,1.1-0.6,2.1-1,3.2c-0.3,1.1-0.1,1.3,1,1.3c2.4,0,4.7,0,7.1,0c0.2,0,0.4,0,0.7,0
		C24.8,23.6,20.8,29,16.7,34.3C16.8,34.3,16.8,34.3,16.7,34.3z"/>
</g>
</svg>
