<?xml version="1.0" encoding="utf-8"?>
<!-- Generator: Adobe Illustrator 27.9.0, SVG Export Plug-In . SVG Version: 6.00 Build 0)  -->
<svg version="1.1" id="Ebene_1" xmlns="http://www.w3.org/2000/svg" xmlns:xlink="http://www.w3.org/1999/xlink" x="0px" y="0px"
	 viewBox="0 0 40 40" style="enable-background:new 0 0 40 40;" xml:space="preserve">
<style type="text/css">
	.st0{fill:#FFFFFF;}
</style>
<g>
	<path d="M25.7,32.2c0,2.5-0.9,4.2-2.9,4.9c-0.5,0.2-1,0.3-1.5,0.3c-4.4,0-8.8,0-13.2,0c-2.6,0-4.5-1.9-4.5-4.6c0-2.2,2-4.3,4.3-4.3
		c0.6,0,0.9-0.1,1.1-0.7c0.3-0.8,0.9-1.4,1.4-2.1C5.4,18.5,8.1,7.8,16.3,3.9c1.9-0.9,3.9-1.3,5.9-1.3c0.2,0,0.4,0,0.6,0.1
		c0.4,0,0.7,0.3,0.7,0.6c0,0.3-0.1,0.7-0.4,0.8c-2.5,1.6-4,3.9-4.8,6.7c-1.8,6.6,2.5,13.4,9.2,14.4c2.7,0.4,5.2-0.1,7.5-1.4
		c0.4-0.2,0.7-0.3,1,0c0.3,0.3,0.3,0.7,0.1,1c-2.2,3.8-5.3,6.3-9.6,7.3C26.3,32.1,26,32.1,25.7,32.2z M33.6,26.1
		c-6.6,2-12.2-0.8-15-5c-1.8-2.7-2.5-5.6-2.1-8.8c0.4-3.2,1.8-5.8,4-8.1c-4.3,0.3-8.7,3.8-10.3,8.3C8.7,16.8,9,21,11.7,24.9
		c1.9-1,3.7-1.2,5.6-0.4c1.9,0.8,3.1,2.2,3.7,4.1c1.7,0,3.1,0.6,4.1,2c0.1,0.1,0.4,0.2,0.6,0.1C28.9,30.2,31.5,28.6,33.6,26.1z
		 M14.7,35.9c2.2,0,4.4,0,6.7,0c1.4,0,2.7-1.1,2.9-2.5c0.2-1.5-0.6-2.8-2-3.2c-0.5-0.1-1-0.1-1.6-0.1c-0.7,0-1-0.1-1-0.8
		c0-0.1,0-0.2-0.1-0.3c-0.6-2.1-2.6-3.6-4.8-3.5c-2.4,0.1-4.2,1.7-4.6,4c-0.1,0.5-0.5,0.8-1,0.6C8.9,30,8.7,30,8.5,29.9
		c-1.7-0.1-3.3,1.3-3.4,3c0,1.6,1.4,3,3.1,3C10.4,36,12.5,35.9,14.7,35.9z"/>
	<path class="st0" d="M33.6,26.1c-2.2,2.5-4.7,4.1-7.9,4.7c-0.2,0-0.5,0-0.6-0.1c-1-1.4-2.4-1.9-4.1-2c-0.6-1.9-1.8-3.3-3.7-4.1
		c-1.9-0.8-3.8-0.6-5.6,0.4c-2.7-3.9-3-8.1-1.4-12.4c1.6-4.5,6-8,10.3-8.3c-2.3,2.3-3.6,5-4,8.1c-0.4,3.2,0.3,6.1,2.1,8.8
		C21.4,25.3,27,28.1,33.6,26.1z"/>
	<path class="st0" d="M14.7,35.9c-2.1,0-4.3,0-6.4,0c-1.7,0-3.2-1.4-3.1-3c0.1-1.7,1.6-3.1,3.4-3c0.2,0,0.4,0.1,0.6,0.1
		c0.5,0.2,0.9-0.1,1-0.6c0.4-2.3,2.2-3.8,4.6-4c2.1-0.1,4.2,1.4,4.8,3.5c0,0.1,0,0.2,0.1,0.3c0.1,0.7,0.3,0.9,1,0.8
		c0.5,0,1.1,0,1.6,0.1c1.4,0.4,2.2,1.7,2,3.2c-0.2,1.4-1.5,2.5-2.9,2.5C19.1,36,16.9,35.9,14.7,35.9z"/>
</g>
</svg>
