<?xml version="1.0" encoding="utf-8"?>
<!-- Generator: Adobe Illustrator 27.9.0, SVG Export Plug-In . SVG Version: 6.00 Build 0)  -->
<svg version="1.1" id="Ebene_1" xmlns="http://www.w3.org/2000/svg" xmlns:xlink="http://www.w3.org/1999/xlink" x="0px" y="0px"
	 viewBox="0 0 40 40" style="enable-background:new 0 0 40 40;" xml:space="preserve">
<style type="text/css">
	.st0{fill:#FFFFFF;}
</style>
<g>
	<path d="M8.3,24c-0.2,0-0.5,0-0.7,0c-1.4,0.1-2.5-1.4-1.8-2.9c0.3-0.6,0.7-1.1,1-1.7c0.4-0.6,0.8-1.3,1.2-1.9
		c0.5-0.9,0.7-1.8,0.8-2.9c0.2-4.5,2.2-7.9,6.1-10.2C17.3,3,20,2.7,22.7,2.9c2.6,0.2,5,1.1,7.1,2.8c2.7,2.2,4.2,5,4.5,8.5
		c0.4,3.7-0.5,7.1-2.6,10.2c-1,1.5-1.6,3-1.8,4.8c-0.2,1.2,0.3,2.2,0.5,3.3c0.2,1.2,0.5,2.3,0.7,3.5c0,0.1,0,0.2,0,0.3
		c0.1,0.5-0.1,0.8-0.5,0.9c-0.5,0.1-0.8-0.1-0.9-0.6c-0.3-1.6-0.6-3.3-1-4.9c-0.8-3.1,0.4-5.7,2-8.2c2.5-3.9,3-8,1.4-12.2
		c-1.5-3.8-4.4-6-8.4-6.7c-2.6-0.5-5.2-0.2-7.6,0.9C12.8,7,11,9.7,10.3,13.2c-0.1,0.7-0.1,1.4-0.1,2.2C10,16,10,16.7,9.7,17.3
		c-0.6,1.2-1.3,2.2-1.9,3.4c-0.1,0.2-0.3,0.4-0.4,0.6c-0.1,0.3-0.3,0.7-0.2,1c0,0.1,0.6,0.2,0.9,0.2c0.1,0,0.3,0,0.4,0
		c1.3,0,1.5,0.2,1.4,1.5c0,1-0.1,2.1-0.1,3.1c-0.1,2,1,3.3,3,3.3c0.6,0,1.3,0,1.9,0c1.4-0.1,1.9,0.9,2.1,2c0.1,1.1,0.2,2.2,0.3,3.4
		c0,0.1,0,0.2,0,0.2c0,0.7-0.2,1-0.7,1.1c-0.4,0-0.7-0.3-0.8-0.9c-0.1-1.2-0.2-2.4-0.3-3.6c0-0.5-0.3-0.7-0.8-0.7
		c-0.9,0-1.7,0-2.6-0.1c-2.2-0.3-3.6-1.9-3.6-4.1C8.3,26.4,8.3,25.3,8.3,24z"/>
	<path d="M21.7,26.6c-0.4,0-0.8,0-1.1,0c-1,0-1.6-0.7-1.7-1.7c0-0.8,0.1-1.6-0.2-2.3c-0.3-0.8-0.7-1.6-1.2-2.3
		c-2.1-2.9-1.1-6.2,1.2-7.8c2.1-1.4,4.9-1.1,6.8,0.7c1.8,1.8,2.1,4.5,0.7,6.6c-0.5,0.7-1,1.4-1.3,2.2c-0.3,0.8-0.3,1.6-0.3,2.5
		c-0.1,1.6-0.6,2.1-2.1,2.1C22.2,26.6,21.9,26.6,21.7,26.6C21.7,26.6,21.7,26.6,21.7,26.6z M23,22.5c0.6-1.1,1.1-2,1.7-2.9
		c0.6-0.8,1-1.7,1-2.7c-0.1-1.7-1.2-3.1-2.8-3.6c-1.5-0.5-3.2,0.1-4.2,1.4c-1,1.4-1.1,3-0.1,4.5c0.7,1.1,1.5,2.1,1.8,3.4
		C21.2,22.5,22.2,22.5,23,22.5z M20.3,24c0,0.2,0,0.3,0,0.4c0,0.7,0,0.7,0.8,0.7c0.5,0,0.9,0,1.4,0c0.6,0.1,0.8-0.2,0.7-0.7
		c0-0.1,0-0.3,0-0.4C22.1,24,21.2,24,20.3,24z"/>
	<path d="M17.3,12.4c-0.6,0-2.1-1.5-2.1-1.9c0-0.2,0.2-0.5,0.4-0.6c0.2-0.1,0.5-0.1,0.7,0.1c0.5,0.4,1,0.9,1.4,1.4
		c0.1,0.2,0.1,0.5,0.1,0.7C17.6,12.2,17.4,12.3,17.3,12.4z"/>
	<path d="M26.1,12.4c-0.1-0.1-0.4-0.2-0.5-0.4c-0.1-0.2-0.1-0.6,0.1-0.7c0.4-0.5,0.8-0.9,1.3-1.3c0.2-0.1,0.6-0.1,0.8,0
		c0.2,0.1,0.3,0.6,0.2,0.8c-0.5,0.6-1,1.1-1.6,1.6C26.4,12.4,26.3,12.4,26.1,12.4z"/>
	<path d="M22.3,9.1c0,0.3,0,0.6,0,0.9c0,0.4-0.3,0.6-0.7,0.6c-0.4,0-0.7-0.2-0.7-0.6c0-0.6,0-1.1,0-1.7c0-0.4,0.3-0.7,0.7-0.6
		c0.4,0,0.6,0.3,0.7,0.7C22.3,8.5,22.3,8.8,22.3,9.1z"/>
	<path class="st0" d="M23,22.5c-0.8,0-1.7,0-2.7,0c-0.3-1.3-1-2.3-1.8-3.4c-1-1.5-1-3.1,0.1-4.5c1-1.3,2.7-1.9,4.2-1.4
		c1.6,0.5,2.8,2,2.8,3.6c0,1-0.4,1.9-1,2.7C24,20.4,23.5,21.4,23,22.5z"/>
	<path class="st0" d="M20.3,24c1,0,1.9,0,2.8,0c0,0.2,0,0.3,0,0.4c0.1,0.5-0.1,0.8-0.7,0.7c-0.5,0-0.9,0-1.4,0c-0.8,0-0.8,0-0.8-0.7
		C20.3,24.3,20.3,24.2,20.3,24z"/>
</g>
</svg>
